<?xml version="1.0" standalone="no"?>
<!DOCTYPE svg PUBLIC "-//W3C//DTD SVG 20010904//EN"
 "http://www.w3.org/TR/2001/REC-SVG-20010904/DTD/svg10.dtd">
<svg version="1.0" xmlns="http://www.w3.org/2000/svg"
 width="313.000000pt" height="287.000000pt" viewBox="0 0 313.000000 287.000000"
 preserveAspectRatio="xMidYMid meet">

<g transform="translate(0.000000,287.000000) scale(0.100000,-0.100000)"
fill="#000000" stroke="none">
<path d="M1410 2524 c-120 -21 -154 -29 -227 -54 -562 -191 -871 -804 -691
-1370 209 -658 959 -963 1568 -638 533 284 735 954 449 1488 -149 276 -396
467 -714 550 -78 21 -320 36 -385 24z m-419 -424 c17 -10 19 -22 19 -115 l0
-105 -25 0 c-23 0 -25 4 -25 44 0 61 -18 68 -22 9 -3 -44 -5 -48 -30 -51 l-28
-3 0 100 c0 77 4 103 16 115 18 18 66 21 95 6z m163 -6 c20 -19 23 -183 4
-202 -7 -7 -30 -12 -53 -12 -23 0 -46 5 -53 12 -8 8 -12 46 -12 105 0 77 3 94
18 102 26 16 79 13 96 -5z m301 2 c51 -22 59 -46 60 -181 l0 -120 -82 -3 -83
-3 0 -95 c0 -86 2 -95 18 -92 14 3 18 16 20 71 l3 68 62 -3 62 -3 -2 -65 c-4
-89 -8 -105 -40 -126 -42 -28 -171 -27 -209 2 -40 29 -46 69 -42 300 3 219 5
225 63 250 40 18 127 17 170 0z m345 -4 c49 -24 60 -53 60 -159 l0 -93 -60 0
-60 0 0 79 c0 92 -5 111 -31 111 -18 0 -19 -9 -19 -114 0 -125 1 -126 63 -126
18 0 46 -9 64 -19 40 -25 46 -60 41 -229 -3 -117 -4 -123 -30 -148 -47 -47
-187 -46 -234 1 -23 23 -24 31 -24 145 l0 120 60 0 60 0 0 -110 c0 -101 2
-110 19 -110 10 0 22 7 25 16 8 20 8 182 0 222 -6 28 -9 30 -62 34 -45 4 -60
10 -79 32 -22 26 -23 35 -23 162 0 78 5 144 11 155 25 47 152 65 219 31z m337
3 c63 -26 62 -24 63 -308 l0 -258 -72 0 c-40 -1 -94 -1 -120 -2 -38 -1 -53 3
-70 21 -21 21 -23 31 -23 142 0 116 1 120 27 146 21 21 39 28 82 32 l56 4 0
75 c0 58 -3 75 -16 80 -22 8 -34 -14 -34 -64 l0 -43 -60 0 -60 0 0 53 c0 28 6
63 13 77 27 54 136 77 214 45z m-1022 -280 c21 -8 39 -25 45 -40 6 -15 10 -98
10 -185 0 -151 -1 -160 -23 -185 -27 -32 -79 -44 -189 -45 l-78 0 0 235 0 235
100 0 c65 0 113 -5 135 -15z m362 -368 c28 -27 28 -28 31 -189 3 -125 0 -163
-10 -169 -7 -5 -46 -9 -85 -9 l-73 0 0 -130 c0 -109 3 -132 15 -137 9 -3 18
-3 22 0 3 3 5 53 4 111 -2 95 0 106 16 107 18 1 91 1 106 0 4 -1 7 -49 7 -108
0 -129 -15 -165 -77 -182 -82 -23 -173 -6 -201 36 -15 24 -17 59 -17 328 0
273 2 303 18 328 25 39 51 47 139 44 70 -2 80 -5 105 -30z m663 15 c55 -27 59
-52 59 -352 1 -283 -5 -330 -44 -356 -34 -22 -131 -29 -180 -12 -73 24 -76 38
-73 379 3 323 2 319 63 345 43 19 133 17 175 -4z m-362 -151 l72 0 0 -253 c-1
-322 2 -318 -184 -318 l-106 0 0 40 0 40 69 0 c85 0 101 6 101 36 0 28 2 27
-38 13 -44 -15 -98 4 -117 41 -22 43 -21 336 1 368 21 31 52 43 94 37 19 -3
68 -5 108 -4z m-669 -12 c52 -18 61 -49 61 -211 0 -117 -3 -148 -16 -167 -21
-29 -72 -51 -119 -51 l-35 0 0 -65 0 -65 -60 0 -60 0 0 285 0 285 99 0 c54 0
112 -5 130 -11z"/>
<path d="M940 2046 c0 -22 3 -27 11 -19 8 8 8 16 0 30 -9 16 -10 14 -11 -11z"/>
<path d="M1097 2063 c-11 -10 -8 -131 3 -138 6 -4 10 8 11 27 3 109 1 126 -14
111z"/>
<path d="M1350 1950 c0 -73 2 -80 20 -80 18 0 20 7 20 80 0 73 -2 80 -20 80
-18 0 -20 -7 -20 -80z"/>
<path d="M2036 1774 c-9 -24 -7 -147 3 -163 5 -8 16 -11 25 -8 13 5 16 23 16
97 0 82 -2 90 -19 90 -10 0 -22 -7 -25 -16z"/>
<path d="M1007 1743 c-4 -3 -7 -71 -7 -150 0 -144 0 -144 23 -141 21 3 22 7
25 128 1 69 0 135 -3 148 -5 21 -25 29 -38 15z"/>
<path d="M1342 1283 c2 -97 6 -118 18 -118 12 0 16 21 18 118 3 112 2 117 -18
117 -20 0 -21 -5 -18 -117z"/>
<path d="M2026 1384 c-10 -25 -7 -547 3 -563 5 -8 16 -11 25 -8 14 6 16 40 16
297 0 278 -1 290 -19 290 -10 0 -22 -7 -25 -16z"/>
<path d="M1686 1225 c-3 -9 -6 -74 -6 -145 0 -98 3 -129 13 -133 33 -12 38 8
35 149 -3 119 -5 139 -19 142 -9 2 -19 -4 -23 -13z"/>
<path d="M1000 1090 c0 -141 0 -141 23 -138 22 3 22 6 22 138 0 132 0 135 -22
138 -23 3 -23 3 -23 -138z"/>
</g>
</svg>
